<svg xmlns="http://www.w3.org/2000/svg" width="60" height="60" viewBox="0 0 60 60"><defs><style>.a{fill:#f3eded;}</style></defs><path class="a" d="M60,29.227A29.5,29.5,0,0,1,16.307,54.818L0,60,5.317,44.319A28.92,28.92,0,0,1,1.09,29.227a29.456,29.456,0,0,1,58.91,0ZM30.545,4.655A24.7,24.7,0,0,0,5.781,29.227,24.314,24.314,0,0,0,10.5,43.634L7.4,52.76l9.517-3.025A24.788,24.788,0,0,0,55.31,29.229,24.7,24.7,0,0,0,30.545,4.655Zm14.874,31.3c-.182-.3-.663-.478-1.384-.836s-4.273-2.092-4.933-2.33-1.145-.359-1.625.358-1.865,2.33-2.287,2.808-.842.539-1.565.181a19.762,19.762,0,0,1-5.805-3.555A21.6,21.6,0,0,1,23.8,27.623c-.421-.717-.044-1.1.317-1.461.325-.321.723-.837,1.083-1.255a4.8,4.8,0,0,0,.721-1.2,1.305,1.305,0,0,0-.06-1.255c-.18-.358-1.625-3.883-2.227-5.318s-1.2-1.195-1.624-1.195-.9-.06-1.384-.06a2.665,2.665,0,0,0-1.926.9,8.011,8.011,0,0,0-2.526,5.975c0,3.525,2.586,6.931,2.948,7.409s4.993,7.947,12.333,10.815,7.341,1.911,8.665,1.791,4.271-1.733,4.875-3.4A5.972,5.972,0,0,0,45.419,35.959Z"/></svg>